<svg xmlns="http://www.w3.org/2000/svg" viewBox="0 0 800 600">
  <rect width="800" height="600" fill="#e2e8f0"/>
  <rect x="0" y="0" width="800" height="300" fill="#cbd5e1"/>
  <rect x="0" y="300" width="800" height="300" fill="#64748b"/>
  <rect x="0" y="300" width="800" height="10" fill="#f8fafc"/>
  <rect x="40" y="80" width="140" height="220" fill="#94a3b8"/>
  <rect x="220" y="120" width="120" height="180" fill="#a8b6c9"/>
  <rect x="620" y="60" width="150" height="240" fill="#94a3b8"/>
  <g fill="#e0f2fe">
    <rect x="55" y="100" width="20" height="20"/>
    <rect x="90" y="100" width="20" height="20"/>
    <rect x="125" y="100" width="20" height="20"/>
    <rect x="55" y="140" width="20" height="20"/>
    <rect x="90" y="140" width="20" height="20"/>
    <rect x="125" y="140" width="20" height="20"/>
  </g>
  <g>
    <rect x="120" y="380" width="130" height="50" rx="14" fill="#dc2626"/>
    <rect x="140" y="355" width="90" height="35" rx="10" fill="#dc2626"/>
    <circle cx="145" cy="432" r="16" fill="#1e293b"/>
    <circle cx="235" cy="432" r="16" fill="#1e293b"/>
  </g>
  <g>
    <rect x="300" y="385" width="130" height="50" rx="14" fill="#2563eb"/>
    <rect x="320" y="360" width="90" height="35" rx="10" fill="#2563eb"/>
    <circle cx="325" cy="437" r="16" fill="#1e293b"/>
    <circle cx="415" cy="437" r="16" fill="#1e293b"/>
  </g>
  <g>
    <rect x="480" y="380" width="130" height="50" rx="14" fill="#16a34a"/>
    <rect x="500" y="355" width="90" height="35" rx="10" fill="#16a34a"/>
    <circle cx="505" cy="432" r="16" fill="#1e293b"/>
    <circle cx="595" cy="432" r="16" fill="#1e293b"/>
  </g>
</svg>
